<?xml version="1.0" encoding="UTF-8" standalone="no"?>
<!DOCTYPE svg PUBLIC "-//W3C//DTD SVG 1.1//EN"
 "http://www.w3.org/Graphics/SVG/1.1/DTD/svg11.dtd">
<!-- Generated by graphviz version 2.40.1 (20161225.0304)
 -->
<!-- Title: dependencies Pages: 1 -->
<svg width="2549pt" height="284pt"
 viewBox="0.00 0.00 2549.00 284.00" xmlns="http://www.w3.org/2000/svg" xmlns:xlink="http://www.w3.org/1999/xlink">
<g id="graph0" class="graph" transform="scale(1 1) rotate(0) translate(4 280)">
<title>dependencies</title>
<polygon fill="#ffffff" stroke="transparent" points="-4,4 -4,-280 2545,-280 2545,4 -4,4"/>
<text text-anchor="start" x="1249.5091" y="-42.4" font-family="sans-serif" font-weight="bold" font-size="14.00" fill="#000000">Legend</text>
<polygon fill="#ffffb3" stroke="transparent" points="1036.5,-10 1036.5,-30 1056.5,-30 1056.5,-10 1036.5,-10"/>
<text text-anchor="start" x="1060.129" y="-15.4" font-family="sans-serif" font-size="14.00" fill="#000000"> &#160;Declarations</text>
<polygon fill="#8dd3c7" stroke="transparent" points="1149.5,-10 1149.5,-30 1169.5,-30 1169.5,-10 1149.5,-10"/>
<text text-anchor="start" x="1173.2251" y="-15.4" font-family="sans-serif" font-size="14.00" fill="#000000"> &#160;Module</text>
<polygon fill="#80b1d3" stroke="transparent" points="1235.5,-10 1235.5,-30 1255.5,-30 1255.5,-10 1235.5,-10"/>
<text text-anchor="start" x="1259.2812" y="-15.4" font-family="sans-serif" font-size="14.00" fill="#000000"> &#160;Bootstrap</text>
<polygon fill="#fdb462" stroke="transparent" points="1332.5,-10 1332.5,-30 1352.5,-30 1352.5,-10 1332.5,-10"/>
<text text-anchor="start" x="1356.1732" y="-15.4" font-family="sans-serif" font-size="14.00" fill="#000000"> &#160;Providers</text>
<polygon fill="#fb8072" stroke="transparent" points="1428.5,-10 1428.5,-30 1448.5,-30 1448.5,-10 1428.5,-10"/>
<text text-anchor="start" x="1452.2258" y="-15.4" font-family="sans-serif" font-size="14.00" fill="#000000"> &#160;Exports</text>
<g id="clust1" class="cluster">
<title>cluster_NgxAmapModule</title>
<polygon fill="none" stroke="#000000" stroke-dasharray="1,5" points="8,-70 8,-268 2533,-268 2533,-70 8,-70"/>
</g>
<g id="clust2" class="cluster">
<title>cluster_NgxAmapModule_declarations</title>
<polygon fill="none" stroke="#000000" points="48,-78 48,-130 2505,-130 2505,-78 48,-78"/>
</g>
<g id="clust18" class="cluster">
<title>cluster_NgxAmapModule_exports</title>
<polygon fill="none" stroke="#000000" points="16,-208 16,-260 2525,-260 2525,-208 16,-208"/>
</g>
<!-- NgxAmapComponent -->
<g id="node1" class="node">
<title>NgxAmapComponent</title>
<polygon fill="#ffffb3" stroke="#000000" points="2496.6512,-122 2357.3488,-122 2357.3488,-86 2496.6512,-86 2496.6512,-122"/>
<text text-anchor="middle" x="2427" y="-99.8" font-family="Times,serif" font-size="14.00" fill="#000000">NgxAmapComponent</text>
</g>
<!-- NgxAmapModule -->
<g id="node15" class="node">
<title>NgxAmapModule</title>
<polygon fill="#8dd3c7" stroke="#000000" points="1228.8683,-187 1225.8683,-191 1204.8683,-191 1201.8683,-187 1111.1317,-187 1111.1317,-151 1228.8683,-151 1228.8683,-187"/>
<text text-anchor="middle" x="1170" y="-164.8" font-family="Times,serif" font-size="14.00" fill="#000000">NgxAmapModule</text>
</g>
<!-- NgxAmapComponent&#45;&gt;NgxAmapModule -->
<g id="edge1" class="edge">
<title>NgxAmapComponent&#45;&gt;NgxAmapModule</title>
<path fill="none" stroke="#000000" d="M2365.2996,-122.1061C2365.2996,-141.3391 2365.2996,-169 2365.2996,-169 2365.2996,-169 1239.2751,-169 1239.2751,-169"/>
<polygon fill="#000000" stroke="#000000" points="1239.2751,-165.5001 1229.2751,-169 1239.2751,-172.5001 1239.2751,-165.5001"/>
</g>
<!-- AmapMarkerDirective -->
<g id="node2" class="node">
<title>AmapMarkerDirective</title>
<polygon fill="#ffffb3" stroke="#000000" points="2338.9904,-122 2195.0096,-122 2195.0096,-86 2338.9904,-86 2338.9904,-122"/>
<text text-anchor="middle" x="2267" y="-99.8" font-family="Times,serif" font-size="14.00" fill="#000000">AmapMarkerDirective</text>
</g>
<!-- AmapMarkerDirective&#45;&gt;NgxAmapModule -->
<g id="edge2" class="edge">
<title>AmapMarkerDirective&#45;&gt;NgxAmapModule</title>
<path fill="none" stroke="#000000" d="M2201.8802,-122.2222C2201.8802,-140.8285 2201.8802,-167 2201.8802,-167 2201.8802,-167 1239.1846,-167 1239.1846,-167"/>
<polygon fill="#000000" stroke="#000000" points="1239.1846,-163.5001 1229.1846,-167 1239.1845,-170.5001 1239.1846,-163.5001"/>
</g>
<!-- AmapInfoWindowComponent -->
<g id="node3" class="node">
<title>AmapInfoWindowComponent</title>
<polygon fill="#ffffb3" stroke="#000000" points="2177.5772,-122 1990.4228,-122 1990.4228,-86 2177.5772,-86 2177.5772,-122"/>
<text text-anchor="middle" x="2084" y="-99.8" font-family="Times,serif" font-size="14.00" fill="#000000">AmapInfoWindowComponent</text>
</g>
<!-- AmapInfoWindowComponent&#45;&gt;NgxAmapModule -->
<g id="edge3" class="edge">
<title>AmapInfoWindowComponent&#45;&gt;NgxAmapModule</title>
<path fill="none" stroke="#000000" d="M1995.0864,-122.002C1995.0864,-139.6754 1995.0864,-164 1995.0864,-164 1995.0864,-164 1239.0071,-164 1239.0071,-164"/>
<polygon fill="#000000" stroke="#000000" points="1239.0071,-160.5001 1229.0071,-164 1239.007,-167.5001 1239.0071,-160.5001"/>
</g>
<!-- AmapPolylineDirective -->
<g id="node4" class="node">
<title>AmapPolylineDirective</title>
<polygon fill="#ffffb3" stroke="#000000" points="1972.4636,-122 1823.5364,-122 1823.5364,-86 1972.4636,-86 1972.4636,-122"/>
<text text-anchor="middle" x="1898" y="-99.8" font-family="Times,serif" font-size="14.00" fill="#000000">AmapPolylineDirective</text>
</g>
<!-- AmapPolylineDirective&#45;&gt;NgxAmapModule -->
<g id="edge4" class="edge">
<title>AmapPolylineDirective&#45;&gt;NgxAmapModule</title>
<path fill="none" stroke="#000000" d="M1924.5773,-122.0336C1924.5773,-139.0597 1924.5773,-162 1924.5773,-162 1924.5773,-162 1238.8961,-162 1238.8961,-162"/>
<polygon fill="#000000" stroke="#000000" points="1238.8961,-158.5001 1228.8961,-162 1238.8961,-165.5001 1238.8961,-158.5001"/>
</g>
<!-- AmapToolBarDirective -->
<g id="node5" class="node">
<title>AmapToolBarDirective</title>
<polygon fill="#ffffb3" stroke="#000000" points="1805.4496,-122 1656.5504,-122 1656.5504,-86 1805.4496,-86 1805.4496,-122"/>
<text text-anchor="middle" x="1731" y="-99.8" font-family="Times,serif" font-size="14.00" fill="#000000">AmapToolBarDirective</text>
</g>
<!-- AmapToolBarDirective&#45;&gt;NgxAmapModule -->
<g id="edge5" class="edge">
<title>AmapToolBarDirective&#45;&gt;NgxAmapModule</title>
<path fill="none" stroke="#000000" d="M1756.5749,-122.0091C1756.5749,-138.0494 1756.5749,-159 1756.5749,-159 1756.5749,-159 1238.9287,-159 1238.9287,-159"/>
<polygon fill="#000000" stroke="#000000" points="1238.9288,-155.5001 1228.9287,-159 1238.9287,-162.5001 1238.9288,-155.5001"/>
</g>
<!-- AmapMarkerClustererDirective -->
<g id="node6" class="node">
<title>AmapMarkerClustererDirective</title>
<polygon fill="#ffffb3" stroke="#000000" points="1638.3025,-122 1443.6975,-122 1443.6975,-86 1638.3025,-86 1638.3025,-122"/>
<text text-anchor="middle" x="1541" y="-99.8" font-family="Times,serif" font-size="14.00" fill="#000000">AmapMarkerClustererDirective</text>
</g>
<!-- AmapMarkerClustererDirective&#45;&gt;NgxAmapModule -->
<g id="edge6" class="edge">
<title>AmapMarkerClustererDirective&#45;&gt;NgxAmapModule</title>
<path fill="none" stroke="#000000" d="M1573.4671,-122.2396C1573.4671,-137.5706 1573.4671,-157 1573.4671,-157 1573.4671,-157 1239.0997,-157 1239.0997,-157"/>
<polygon fill="#000000" stroke="#000000" points="1239.0997,-153.5001 1229.0997,-157 1239.0996,-160.5001 1239.0997,-153.5001"/>
</g>
<!-- AmapAutocompleteDirective -->
<g id="node7" class="node">
<title>AmapAutocompleteDirective</title>
<polygon fill="#ffffb3" stroke="#000000" points="1425.6078,-122 1244.3922,-122 1244.3922,-86 1425.6078,-86 1425.6078,-122"/>
<text text-anchor="middle" x="1335" y="-99.8" font-family="Times,serif" font-size="14.00" fill="#000000">AmapAutocompleteDirective</text>
</g>
<!-- AmapAutocompleteDirective&#45;&gt;NgxAmapModule -->
<g id="edge7" class="edge">
<title>AmapAutocompleteDirective&#45;&gt;NgxAmapModule</title>
<path fill="none" stroke="#000000" d="M1334.375,-122.0511C1334.375,-136.373 1334.375,-154 1334.375,-154 1334.375,-154 1238.8789,-154 1238.8789,-154"/>
<polygon fill="#000000" stroke="#000000" points="1238.8789,-150.5001 1228.8789,-154 1238.8788,-157.5001 1238.8789,-150.5001"/>
</g>
<!-- AmapCircleDirective -->
<g id="node8" class="node">
<title>AmapCircleDirective</title>
<polygon fill="#ffffb3" stroke="#000000" points="1226.0031,-122 1089.9969,-122 1089.9969,-86 1226.0031,-86 1226.0031,-122"/>
<text text-anchor="middle" x="1158" y="-99.8" font-family="Times,serif" font-size="14.00" fill="#000000">AmapCircleDirective</text>
</g>
<!-- AmapCircleDirective&#45;&gt;NgxAmapModule -->
<g id="edge8" class="edge">
<title>AmapCircleDirective&#45;&gt;NgxAmapModule</title>
<path fill="none" stroke="#000000" d="M1168.6585,-122.1061C1168.6585,-122.1061 1168.6585,-140.991 1168.6585,-140.991"/>
<polygon fill="#000000" stroke="#000000" points="1165.1586,-140.9909 1168.6585,-150.991 1172.1586,-140.991 1165.1586,-140.9909"/>
</g>
<!-- AmapCircleMarkerDirective -->
<g id="node9" class="node">
<title>AmapCircleMarkerDirective</title>
<polygon fill="#ffffb3" stroke="#000000" points="1071.6975,-122 894.3025,-122 894.3025,-86 1071.6975,-86 1071.6975,-122"/>
<text text-anchor="middle" x="983" y="-99.8" font-family="Times,serif" font-size="14.00" fill="#000000">AmapCircleMarkerDirective</text>
</g>
<!-- AmapCircleMarkerDirective&#45;&gt;NgxAmapModule -->
<g id="edge9" class="edge">
<title>AmapCircleMarkerDirective&#45;&gt;NgxAmapModule</title>
<path fill="none" stroke="#000000" d="M1067.2236,-122.0511C1067.2236,-136.373 1067.2236,-154 1067.2236,-154 1067.2236,-154 1101.1082,-154 1101.1082,-154"/>
<polygon fill="#000000" stroke="#000000" points="1101.1082,-157.5001 1111.1082,-154 1101.1081,-150.5001 1101.1082,-157.5001"/>
</g>
<!-- AmapPolygonDirective -->
<g id="node10" class="node">
<title>AmapPolygonDirective</title>
<polygon fill="#ffffb3" stroke="#000000" points="876.4678,-122 727.5322,-122 727.5322,-86 876.4678,-86 876.4678,-122"/>
<text text-anchor="middle" x="802" y="-99.8" font-family="Times,serif" font-size="14.00" fill="#000000">AmapPolygonDirective</text>
</g>
<!-- AmapPolygonDirective&#45;&gt;NgxAmapModule -->
<g id="edge10" class="edge">
<title>AmapPolygonDirective&#45;&gt;NgxAmapModule</title>
<path fill="none" stroke="#000000" d="M869.8589,-122.2396C869.8589,-137.5706 869.8589,-157 869.8589,-157 869.8589,-157 1101.0599,-157 1101.0599,-157"/>
<polygon fill="#000000" stroke="#000000" points="1101.0599,-160.5001 1111.0599,-157 1101.0599,-153.5001 1101.0599,-160.5001"/>
</g>
<!-- AmapTextDirective -->
<g id="node11" class="node">
<title>AmapTextDirective</title>
<polygon fill="#ffffb3" stroke="#000000" points="709.9524,-122 582.0476,-122 582.0476,-86 709.9524,-86 709.9524,-122"/>
<text text-anchor="middle" x="646" y="-99.8" font-family="Times,serif" font-size="14.00" fill="#000000">AmapTextDirective</text>
</g>
<!-- AmapTextDirective&#45;&gt;NgxAmapModule -->
<g id="edge11" class="edge">
<title>AmapTextDirective&#45;&gt;NgxAmapModule</title>
<path fill="none" stroke="#000000" d="M701.3512,-122.027C701.3512,-138.3976 701.3512,-160 701.3512,-160 701.3512,-160 1101.1198,-160 1101.1198,-160"/>
<polygon fill="#000000" stroke="#000000" points="1101.1199,-163.5001 1111.1198,-160 1101.1198,-156.5001 1101.1199,-163.5001"/>
</g>
<!-- AmapBezierCurveDirective -->
<g id="node12" class="node">
<title>AmapBezierCurveDirective</title>
<polygon fill="#ffffb3" stroke="#000000" points="564.538,-122 391.462,-122 391.462,-86 564.538,-86 564.538,-122"/>
<text text-anchor="middle" x="478" y="-99.8" font-family="Times,serif" font-size="14.00" fill="#000000">AmapBezierCurveDirective</text>
</g>
<!-- AmapBezierCurveDirective&#45;&gt;NgxAmapModule -->
<g id="edge12" class="edge">
<title>AmapBezierCurveDirective&#45;&gt;NgxAmapModule</title>
<path fill="none" stroke="#000000" d="M552.2714,-122.0225C552.2714,-139.3734 552.2714,-163 552.2714,-163 552.2714,-163 1101.0494,-163 1101.0494,-163"/>
<polygon fill="#000000" stroke="#000000" points="1101.0494,-166.5001 1111.0494,-163 1101.0494,-159.5001 1101.0494,-166.5001"/>
</g>
<!-- AmapEllipseDirective -->
<g id="node13" class="node">
<title>AmapEllipseDirective</title>
<polygon fill="#ffffb3" stroke="#000000" points="373.6783,-122 232.3217,-122 232.3217,-86 373.6783,-86 373.6783,-122"/>
<text text-anchor="middle" x="303" y="-99.8" font-family="Times,serif" font-size="14.00" fill="#000000">AmapEllipseDirective</text>
</g>
<!-- AmapEllipseDirective&#45;&gt;NgxAmapModule -->
<g id="edge13" class="edge">
<title>AmapEllipseDirective&#45;&gt;NgxAmapModule</title>
<path fill="none" stroke="#000000" d="M357.535,-122.302C357.535,-140.2699 357.535,-165 357.535,-165 357.535,-165 1100.9151,-165 1100.9151,-165"/>
<polygon fill="#000000" stroke="#000000" points="1100.9151,-168.5001 1110.9151,-165 1100.915,-161.5001 1100.9151,-168.5001"/>
</g>
<!-- AmapRectangleDirective -->
<g id="node14" class="node">
<title>AmapRectangleDirective</title>
<polygon fill="#ffffb3" stroke="#000000" points="214.271,-122 55.729,-122 55.729,-86 214.271,-86 214.271,-122"/>
<text text-anchor="middle" x="135" y="-99.8" font-family="Times,serif" font-size="14.00" fill="#000000">AmapRectangleDirective</text>
</g>
<!-- AmapRectangleDirective&#45;&gt;NgxAmapModule -->
<g id="edge14" class="edge">
<title>AmapRectangleDirective&#45;&gt;NgxAmapModule</title>
<path fill="none" stroke="#000000" d="M208.8981,-122.1686C208.8981,-141.0898 208.8981,-168 208.8981,-168 208.8981,-168 1100.9653,-168 1100.9653,-168"/>
<polygon fill="#000000" stroke="#000000" points="1100.9653,-171.5001 1110.9653,-168 1100.9653,-164.5001 1100.9653,-171.5001"/>
</g>
<!-- NgxAmapComponent  -->
<g id="node16" class="node">
<title>NgxAmapComponent </title>
<polygon fill="#fb8072" stroke="#000000" points="2516.6509,-252 2373.3491,-252 2373.3491,-216 2516.6509,-216 2516.6509,-252"/>
<text text-anchor="middle" x="2445" y="-229.8" font-family="Times,serif" font-size="14.00" fill="#000000">NgxAmapComponent </text>
</g>
<!-- NgxAmapModule&#45;&gt;NgxAmapComponent  -->
<g id="edge15" class="edge">
<title>NgxAmapModule&#45;&gt;NgxAmapComponent </title>
<path fill="none" stroke="#000000" stroke-dasharray="5,2" d="M1228.9019,-172C1478.3686,-172 2435.125,-172 2435.125,-172 2435.125,-172 2435.125,-205.7333 2435.125,-205.7333"/>
<polygon fill="#000000" stroke="#000000" points="2431.6251,-205.7333 2435.125,-215.7333 2438.6251,-205.7333 2431.6251,-205.7333"/>
</g>
<!-- AmapMarkerDirective  -->
<g id="node17" class="node">
<title>AmapMarkerDirective </title>
<polygon fill="#fb8072" stroke="#000000" points="2355.4896,-252 2208.5104,-252 2208.5104,-216 2355.4896,-216 2355.4896,-252"/>
<text text-anchor="middle" x="2282" y="-229.8" font-family="Times,serif" font-size="14.00" fill="#000000">AmapMarkerDirective </text>
</g>
<!-- NgxAmapModule&#45;&gt;AmapMarkerDirective  -->
<g id="edge16" class="edge">
<title>NgxAmapModule&#45;&gt;AmapMarkerDirective </title>
<path fill="none" stroke="#000000" stroke-dasharray="5,2" d="M1228.9455,-175C1457.6435,-175 2273.625,-175 2273.625,-175 2273.625,-175 2273.625,-205.9775 2273.625,-205.9775"/>
<polygon fill="#000000" stroke="#000000" points="2270.1251,-205.9774 2273.625,-215.9775 2277.1251,-205.9775 2270.1251,-205.9774"/>
</g>
<!-- AmapInfoWindowComponent  -->
<g id="node18" class="node">
<title>AmapInfoWindowComponent </title>
<polygon fill="#fb8072" stroke="#000000" points="2190.0777,-252 1999.9223,-252 1999.9223,-216 2190.0777,-216 2190.0777,-252"/>
<text text-anchor="middle" x="2095" y="-229.8" font-family="Times,serif" font-size="14.00" fill="#000000">AmapInfoWindowComponent </text>
</g>
<!-- NgxAmapModule&#45;&gt;AmapInfoWindowComponent  -->
<g id="edge17" class="edge">
<title>NgxAmapModule&#45;&gt;AmapInfoWindowComponent </title>
<path fill="none" stroke="#000000" stroke-dasharray="5,2" d="M1229.2132,-177C1432.3702,-177 2088.625,-177 2088.625,-177 2088.625,-177 2088.625,-205.9648 2088.625,-205.9648"/>
<polygon fill="#000000" stroke="#000000" points="2085.1251,-205.9648 2088.625,-215.9648 2092.1251,-205.9649 2085.1251,-205.9648"/>
</g>
<!-- AmapPolylineDirective  -->
<g id="node19" class="node">
<title>AmapPolylineDirective </title>
<polygon fill="#fb8072" stroke="#000000" points="1981.4643,-252 1828.5357,-252 1828.5357,-216 1981.4643,-216 1981.4643,-252"/>
<text text-anchor="middle" x="1905" y="-229.8" font-family="Times,serif" font-size="14.00" fill="#000000">AmapPolylineDirective </text>
</g>
<!-- NgxAmapModule&#45;&gt;AmapPolylineDirective  -->
<g id="edge18" class="edge">
<title>NgxAmapModule&#45;&gt;AmapPolylineDirective </title>
<path fill="none" stroke="#000000" stroke-dasharray="5,2" d="M1229.035,-180C1398.8766,-180 1876.6727,-180 1876.6727,-180 1876.6727,-180 1876.6727,-205.7181 1876.6727,-205.7181"/>
<polygon fill="#000000" stroke="#000000" points="1873.1728,-205.718 1876.6727,-215.7181 1880.1728,-205.7181 1873.1728,-205.718"/>
</g>
<!-- AmapToolBarDirective  -->
<g id="node20" class="node">
<title>AmapToolBarDirective </title>
<polygon fill="#fb8072" stroke="#000000" points="1811.4503,-252 1658.5497,-252 1658.5497,-216 1811.4503,-216 1811.4503,-252"/>
<text text-anchor="middle" x="1735" y="-229.8" font-family="Times,serif" font-size="14.00" fill="#000000">AmapToolBarDirective </text>
</g>
<!-- NgxAmapModule&#45;&gt;AmapToolBarDirective  -->
<g id="edge19" class="edge">
<title>NgxAmapModule&#45;&gt;AmapToolBarDirective </title>
<path fill="none" stroke="#000000" stroke-dasharray="5,2" d="M1229.0787,-182C1368.752,-182 1707.6751,-182 1707.6751,-182 1707.6751,-182 1707.6751,-205.8129 1707.6751,-205.8129"/>
<polygon fill="#000000" stroke="#000000" points="1704.1752,-205.8129 1707.6751,-215.8129 1711.1752,-205.813 1704.1752,-205.8129"/>
</g>
<!-- AmapMarkerClustererDirective  -->
<g id="node21" class="node">
<title>AmapMarkerClustererDirective </title>
<polygon fill="#fb8072" stroke="#000000" points="1641.3026,-252 1442.6974,-252 1442.6974,-216 1641.3026,-216 1641.3026,-252"/>
<text text-anchor="middle" x="1542" y="-229.8" font-family="Times,serif" font-size="14.00" fill="#000000">AmapMarkerClustererDirective </text>
</g>
<!-- NgxAmapModule&#45;&gt;AmapMarkerClustererDirective  -->
<g id="edge20" class="edge">
<title>NgxAmapModule&#45;&gt;AmapMarkerClustererDirective </title>
<path fill="none" stroke="#000000" stroke-dasharray="5,2" d="M1228.9679,-185C1325.9599,-185 1508.5329,-185 1508.5329,-185 1508.5329,-185 1508.5329,-205.7542 1508.5329,-205.7542"/>
<polygon fill="#000000" stroke="#000000" points="1505.033,-205.7542 1508.5329,-215.7542 1512.033,-205.7542 1505.033,-205.7542"/>
</g>
<!-- AmapAutocompleteDirective  -->
<g id="node22" class="node">
<title>AmapAutocompleteDirective </title>
<polygon fill="#fb8072" stroke="#000000" points="1424.6074,-252 1239.3926,-252 1239.3926,-216 1424.6074,-216 1424.6074,-252"/>
<text text-anchor="middle" x="1332" y="-229.8" font-family="Times,serif" font-size="14.00" fill="#000000">AmapAutocompleteDirective </text>
</g>
<!-- NgxAmapModule&#45;&gt;AmapAutocompleteDirective  -->
<g id="edge21" class="edge">
<title>NgxAmapModule&#45;&gt;AmapAutocompleteDirective </title>
<path fill="none" stroke="#000000" stroke-dasharray="5,2" d="M1224.9676,-187.1061C1224.9676,-206.3391 1224.9676,-234 1224.9676,-234 1224.9676,-234 1229.4025,-234 1229.4025,-234"/>
<polygon fill="#000000" stroke="#000000" points="1229.4025,-237.5001 1239.4025,-234 1229.4024,-230.5001 1229.4025,-237.5001"/>
</g>
<!-- AmapCircleDirective  -->
<g id="node23" class="node">
<title>AmapCircleDirective </title>
<polygon fill="#fb8072" stroke="#000000" points="1221.0022,-252 1080.9978,-252 1080.9978,-216 1221.0022,-216 1221.0022,-252"/>
<text text-anchor="middle" x="1151" y="-229.8" font-family="Times,serif" font-size="14.00" fill="#000000">AmapCircleDirective </text>
</g>
<!-- NgxAmapModule&#45;&gt;AmapCircleDirective  -->
<g id="edge22" class="edge">
<title>NgxAmapModule&#45;&gt;AmapCircleDirective </title>
<path fill="none" stroke="#000000" stroke-dasharray="5,2" d="M1166.0335,-187.1061C1166.0335,-187.1061 1166.0335,-205.991 1166.0335,-205.991"/>
<polygon fill="#000000" stroke="#000000" points="1162.5336,-205.9909 1166.0335,-215.991 1169.5336,-205.991 1162.5336,-205.9909"/>
</g>
<!-- AmapCircleMarkerDirective  -->
<g id="node24" class="node">
<title>AmapCircleMarkerDirective </title>
<polygon fill="#fb8072" stroke="#000000" points="1062.6973,-252 881.3027,-252 881.3027,-216 1062.6973,-216 1062.6973,-252"/>
<text text-anchor="middle" x="972" y="-229.8" font-family="Times,serif" font-size="14.00" fill="#000000">AmapCircleMarkerDirective </text>
</g>
<!-- NgxAmapModule&#45;&gt;AmapCircleMarkerDirective  -->
<g id="edge23" class="edge">
<title>NgxAmapModule&#45;&gt;AmapCircleMarkerDirective </title>
<path fill="none" stroke="#000000" stroke-dasharray="5,2" d="M1110.9426,-185C1054.6386,-185 978.375,-185 978.375,-185 978.375,-185 978.375,-205.7542 978.375,-205.7542"/>
<polygon fill="#000000" stroke="#000000" points="974.8751,-205.7542 978.375,-215.7542 981.8751,-205.7542 974.8751,-205.7542"/>
</g>
<!-- AmapPolygonDirective  -->
<g id="node25" class="node">
<title>AmapPolygonDirective </title>
<polygon fill="#fb8072" stroke="#000000" points="863.4685,-252 710.5315,-252 710.5315,-216 863.4685,-216 863.4685,-252"/>
<text text-anchor="middle" x="787" y="-229.8" font-family="Times,serif" font-size="14.00" fill="#000000">AmapPolygonDirective </text>
</g>
<!-- NgxAmapModule&#45;&gt;AmapPolygonDirective  -->
<g id="edge24" class="edge">
<title>NgxAmapModule&#45;&gt;AmapPolygonDirective </title>
<path fill="none" stroke="#000000" stroke-dasharray="5,2" d="M1111.0527,-182C1005.5532,-182 795.375,-182 795.375,-182 795.375,-182 795.375,-205.8129 795.375,-205.8129"/>
<polygon fill="#000000" stroke="#000000" points="791.8751,-205.8129 795.375,-215.8129 798.8751,-205.813 791.8751,-205.8129"/>
</g>
<!-- AmapTextDirective  -->
<g id="node26" class="node">
<title>AmapTextDirective </title>
<polygon fill="#fb8072" stroke="#000000" points="692.9532,-252 561.0468,-252 561.0468,-216 692.9532,-216 692.9532,-252"/>
<text text-anchor="middle" x="627" y="-229.8" font-family="Times,serif" font-size="14.00" fill="#000000">AmapTextDirective </text>
</g>
<!-- NgxAmapModule&#45;&gt;AmapTextDirective  -->
<g id="edge25" class="edge">
<title>NgxAmapModule&#45;&gt;AmapTextDirective </title>
<path fill="none" stroke="#000000" stroke-dasharray="5,2" d="M1110.9648,-179C972.2893,-179 637.375,-179 637.375,-179 637.375,-179 637.375,-205.9909 637.375,-205.9909"/>
<polygon fill="#000000" stroke="#000000" points="633.8751,-205.9909 637.375,-215.9909 640.8751,-205.991 633.8751,-205.9909"/>
</g>
<!-- AmapBezierCurveDirective  -->
<g id="node27" class="node">
<title>AmapBezierCurveDirective </title>
<polygon fill="#fb8072" stroke="#000000" points="543.0386,-252 366.9614,-252 366.9614,-216 543.0386,-216 543.0386,-252"/>
<text text-anchor="middle" x="455" y="-229.8" font-family="Times,serif" font-size="14.00" fill="#000000">AmapBezierCurveDirective </text>
</g>
<!-- NgxAmapModule&#45;&gt;AmapBezierCurveDirective  -->
<g id="edge26" class="edge">
<title>NgxAmapModule&#45;&gt;AmapBezierCurveDirective </title>
<path fill="none" stroke="#000000" stroke-dasharray="5,2" d="M1111.0019,-176C941.8703,-176 467.375,-176 467.375,-176 467.375,-176 467.375,-205.9664 467.375,-205.9664"/>
<polygon fill="#000000" stroke="#000000" points="463.8751,-205.9663 467.375,-215.9664 470.8751,-205.9664 463.8751,-205.9663"/>
</g>
<!-- AmapEllipseDirective  -->
<g id="node28" class="node">
<title>AmapEllipseDirective </title>
<polygon fill="#fb8072" stroke="#000000" points="348.1786,-252 203.8214,-252 203.8214,-216 348.1786,-216 348.1786,-252"/>
<text text-anchor="middle" x="276" y="-229.8" font-family="Times,serif" font-size="14.00" fill="#000000">AmapEllipseDirective </text>
</g>
<!-- NgxAmapModule&#45;&gt;AmapEllipseDirective  -->
<g id="edge27" class="edge">
<title>NgxAmapModule&#45;&gt;AmapEllipseDirective </title>
<path fill="none" stroke="#000000" stroke-dasharray="5,2" d="M1110.9195,-174C913.6966,-174 290.375,-174 290.375,-174 290.375,-174 290.375,-205.998 290.375,-205.998"/>
<polygon fill="#000000" stroke="#000000" points="286.8751,-205.998 290.375,-215.998 293.8751,-205.9981 286.8751,-205.998"/>
</g>
<!-- AmapRectangleDirective  -->
<g id="node29" class="node">
<title>AmapRectangleDirective </title>
<polygon fill="#fb8072" stroke="#000000" points="185.771,-252 24.229,-252 24.229,-216 185.771,-216 185.771,-252"/>
<text text-anchor="middle" x="105" y="-229.8" font-family="Times,serif" font-size="14.00" fill="#000000">AmapRectangleDirective </text>
</g>
<!-- NgxAmapModule&#45;&gt;AmapRectangleDirective  -->
<g id="edge28" class="edge">
<title>NgxAmapModule&#45;&gt;AmapRectangleDirective </title>
<path fill="none" stroke="#000000" stroke-dasharray="5,2" d="M1110.968,-171C889.5295,-171 120.875,-171 120.875,-171 120.875,-171 120.875,-205.7778 120.875,-205.7778"/>
<polygon fill="#000000" stroke="#000000" points="117.3751,-205.7778 120.875,-215.7778 124.3751,-205.7778 117.3751,-205.7778"/>
</g>
</g>
</svg>
